<?xml version="1.0" encoding="UTF-8"?>
<svg width="100px" height="99px" viewBox="0 0 100 99" version="1.1" xmlns="http://www.w3.org/2000/svg" xmlns:xlink="http://www.w3.org/1999/xlink">
    <!-- Generator: Sketch 55.2 (78181) - https://sketchapp.com -->
    <title>Group 18</title>
    <desc>Created with Sketch.</desc>
    <defs>
        <path d="M0.294,48.066 C0.294,74.393 21.636,95.735 47.962,95.735 L47.962,95.735 C74.288,95.735 95.63,74.393 95.63,48.066 L95.63,48.066 C95.63,21.741 74.288,0.399 47.962,0.399 L47.962,0.399 C21.636,0.399 0.294,21.741 0.294,48.066" id="path-1"></path>
        <path d="M0.294,48.066 C0.294,74.393 21.636,95.735 47.962,95.735 L47.962,95.735 C74.288,95.735 95.63,74.393 95.63,48.066 L95.63,48.066 C95.63,21.741 74.288,0.399 47.962,0.399 L47.962,0.399 C21.636,0.399 0.294,21.741 0.294,48.066" id="path-3"></path>
        <path d="M0.294,48.066 C0.294,74.393 21.636,95.735 47.962,95.735 L47.962,95.735 C74.288,95.735 95.63,74.393 95.63,48.066 L95.63,48.066 C95.63,21.741 74.288,0.399 47.962,0.399 L47.962,0.399 C21.636,0.399 0.294,21.741 0.294,48.066 L0.294,48.066 Z" id="path-5"></path>
        <path d="M0.294,48.066 C0.294,74.393 21.636,95.735 47.962,95.735 L47.962,95.735 C74.288,95.735 95.63,74.393 95.63,48.066 L95.63,48.066 C95.63,21.741 74.288,0.399 47.962,0.399 L47.962,0.399 C21.636,0.399 0.294,21.741 0.294,48.066" id="path-7"></path>
        <path d="M0.294,48.066 C0.294,74.393 21.636,95.735 47.962,95.735 L47.962,95.735 C74.288,95.735 95.63,74.393 95.63,48.066 L95.63,48.066 C95.63,21.741 74.288,0.399 47.962,0.399 L47.962,0.399 C21.636,0.399 0.294,21.741 0.294,48.066" id="path-9"></path>
        <path d="M0.294,48.066 C0.294,74.393 21.636,95.735 47.962,95.735 L47.962,95.735 C74.288,95.735 95.63,74.393 95.63,48.066 L95.63,48.066 C95.63,21.741 74.288,0.399 47.962,0.399 L47.962,0.399 C21.636,0.399 0.294,21.741 0.294,48.066 L0.294,48.066 Z" id="path-11"></path>
        <path d="M0.294,48.066 C0.294,74.393 21.636,95.735 47.962,95.735 L47.962,95.735 C74.288,95.735 95.63,74.393 95.63,48.066 L95.63,48.066 C95.63,21.741 74.288,0.399 47.962,0.399 L47.962,0.399 C21.636,0.399 0.294,21.741 0.294,48.066" id="path-13"></path>
        <path d="M0.294,48.066 C0.294,74.393 21.636,95.735 47.962,95.735 L47.962,95.735 C74.288,95.735 95.63,74.393 95.63,48.066 L95.63,48.066 C95.63,21.741 74.288,0.399 47.962,0.399 L47.962,0.399 C21.636,0.399 0.294,21.741 0.294,48.066 L0.294,48.066 Z" id="path-15"></path>
        <path d="M0.294,48.066 C0.294,74.393 21.636,95.735 47.962,95.735 L47.962,95.735 C74.288,95.735 95.63,74.393 95.63,48.066 L95.63,48.066 C95.63,21.741 74.288,0.399 47.962,0.399 L47.962,0.399 C21.636,0.399 0.294,21.741 0.294,48.066" id="path-17"></path>
        <path d="M0.294,48.066 C0.294,74.393 21.636,95.735 47.962,95.735 L47.962,95.735 C74.288,95.735 95.63,74.393 95.63,48.066 L95.63,48.066 C95.63,21.741 74.288,0.399 47.962,0.399 L47.962,0.399 C21.636,0.399 0.294,21.741 0.294,48.066 L0.294,48.066 Z" id="path-19"></path>
        <path d="M0.294,48.066 C0.294,74.393 21.636,95.735 47.962,95.735 L47.962,95.735 C74.288,95.735 95.63,74.393 95.63,48.066 L95.63,48.066 C95.63,21.741 74.288,0.399 47.962,0.399 L47.962,0.399 C21.636,0.399 0.294,21.741 0.294,48.066 L0.294,48.066 Z" id="path-21"></path>
        <path d="M0.294,48.066 C0.294,74.393 21.636,95.735 47.962,95.735 L47.962,95.735 C74.288,95.735 95.63,74.393 95.63,48.066 L95.63,48.066 C95.63,21.741 74.288,0.399 47.962,0.399 L47.962,0.399 C21.636,0.399 0.294,21.741 0.294,48.066 L0.294,48.066 Z" id="path-23"></path>
        <path d="M0.294,48.066 C0.294,74.393 21.636,95.735 47.962,95.735 L47.962,95.735 C74.288,95.735 95.63,74.393 95.63,48.066 L95.63,48.066 C95.63,21.741 74.288,0.399 47.962,0.399 L47.962,0.399 C21.636,0.399 0.294,21.741 0.294,48.066 L0.294,48.066 Z" id="path-25"></path>
        <path d="M0.294,48.066 C0.294,74.393 21.636,95.735 47.962,95.735 L47.962,95.735 C74.288,95.735 95.63,74.393 95.63,48.066 L95.63,48.066 C95.63,21.741 74.288,0.399 47.962,0.399 L47.962,0.399 C21.636,0.399 0.294,21.741 0.294,48.066 L0.294,48.066 Z" id="path-27"></path>
        <path d="M0.294,48.066 C0.294,74.393 21.636,95.735 47.962,95.735 L47.962,95.735 C74.288,95.735 95.63,74.393 95.63,48.066 L95.63,48.066 C95.63,21.741 74.288,0.399 47.962,0.399 L47.962,0.399 C21.636,0.399 0.294,21.741 0.294,48.066" id="path-29"></path>
        <path d="M0.294,48.066 C0.294,74.393 21.636,95.735 47.962,95.735 L47.962,95.735 C74.288,95.735 95.63,74.393 95.63,48.066 L95.63,48.066 C95.63,21.741 74.288,0.399 47.962,0.399 L47.962,0.399 C21.636,0.399 0.294,21.741 0.294,48.066" id="path-31"></path>
        <path d="M0.294,48.066 C0.294,74.393 21.636,95.735 47.962,95.735 L47.962,95.735 C74.288,95.735 95.63,74.393 95.63,48.066 L95.63,48.066 C95.63,21.741 74.288,0.399 47.962,0.399 L47.962,0.399 C21.636,0.399 0.294,21.741 0.294,48.066 L0.294,48.066 Z" id="path-33"></path>
        <path d="M0.91499758,3.07 C0.913,4.599 2.151,5.839 3.681,5.84 L3.681,5.84 C5.21,5.84 6.449,4.601 6.4500006,3.073 L6.4500006,3.073 C6.451,1.544 5.211,0.305 3.683,0.303999395 L3.683,0.303999395 C2.155,0.303 0.91499758,1.542 0.91499758,3.07 L0.91499758,3.07 Z" id="path-35"></path>
        <path d="M0.176,3.07 C0.176,4.599 1.414,5.839 2.943,5.84 L2.943,5.84 C4.472,5.84 5.711,4.601 5.71200242,3.073 L5.71200242,3.073 C5.714,1.544 4.474,0.305 2.945,0.303999395 L2.945,0.303999395 C1.416,0.303 0.177,1.542 0.176,3.07 L0.176,3.07 Z" id="path-37"></path>
        <path d="M0.294,48.066 C0.294,74.393 21.636,95.735 47.962,95.735 L47.962,95.735 C74.288,95.735 95.63,74.393 95.63,48.066 L95.63,48.066 C95.63,21.741 74.288,0.399 47.962,0.399 L47.962,0.399 C21.636,0.399 0.294,21.741 0.294,48.066" id="path-39"></path>
        <path d="M3.677,0.519 C2.706,0.519 1.79,0.992 1.228,1.784 L1.228,1.784 C0.668,2.575 0.524,3.591 0.844,4.504 L0.844,4.504 C2.121,8.151 5.577,10.6 9.444,10.6 L9.444,10.6 C13.31,10.6 16.766,8.151 18.043,4.504 L18.043,4.504 C18.364,3.591 18.219,2.575 17.66,1.784 L17.66,1.784 C17.097,0.992 16.181,0.519 15.21,0.519 L15.21,0.519 L3.677,0.519 Z" id="path-41"></path>
        <path d="M0.294,48.066 C0.294,74.393 21.636,95.735 47.962,95.735 L47.962,95.735 C74.288,95.735 95.63,74.393 95.63,48.066 L95.63,48.066 C95.63,21.741 74.288,0.399 47.962,0.399 L47.962,0.399 C21.636,0.399 0.294,21.741 0.294,48.066 L0.294,48.066 Z" id="path-43"></path>
        <path d="M0.294,48.066 C0.294,74.393 21.636,95.735 47.962,95.735 L47.962,95.735 C74.288,95.735 95.63,74.393 95.63,48.066 L95.63,48.066 C95.63,21.741 74.288,0.399 47.962,0.399 L47.962,0.399 C21.636,0.399 0.294,21.741 0.294,48.066" id="path-45"></path>
        <path d="M0.118,3.25 C0.118,4.632 1.238,5.754 2.622,5.754 L2.622,5.754 C4.005,5.754 5.126,4.632 5.126,3.25 L5.126,3.25 C5.126,1.866 4.005,0.745 2.622,0.745 L2.622,0.745 C1.238,0.745 0.118,1.866 0.118,3.25 L0.118,3.25 Z" id="path-47"></path>
        <path d="M0.294,48.066 C0.294,74.393 21.636,95.735 47.962,95.735 L47.962,95.735 C74.288,95.735 95.63,74.393 95.63,48.066 L95.63,48.066 C95.63,21.741 74.288,0.399 47.962,0.399 L47.962,0.399 C21.636,0.399 0.294,21.741 0.294,48.066" id="path-49"></path>
        <path d="M0.391,3.25 C0.391,4.632 1.512,5.754 2.895,5.754 L2.895,5.754 C4.278,5.754 5.4,4.632 5.4,3.25 L5.4,3.25 C5.4,1.866 4.278,0.745 2.895,0.745 L2.895,0.745 C1.512,0.745 0.391,1.866 0.391,3.25 L0.391,3.25 Z" id="path-51"></path>
        <path d="M0.294,48.066 C0.294,74.393 21.636,95.735 47.962,95.735 L47.962,95.735 C74.288,95.735 95.63,74.393 95.63,48.066 L95.63,48.066 C95.63,21.741 74.288,0.399 47.962,0.399 L47.962,0.399 C21.636,0.399 0.294,21.741 0.294,48.066" id="path-53"></path>
        <path d="M0.294,48.066 C0.294,74.393 21.636,95.735 47.962,95.735 L47.962,95.735 C74.288,95.735 95.63,74.393 95.63,48.066 L95.63,48.066 C95.63,21.741 74.288,0.399 47.962,0.399 L47.962,0.399 C21.636,0.399 0.294,21.741 0.294,48.066" id="path-55"></path>
        <path d="M0.294,48.066 C0.294,74.393 21.636,95.735 47.962,95.735 L47.962,95.735 C74.288,95.735 95.63,74.393 95.63,48.066 L95.63,48.066 C95.63,21.741 74.288,0.399 47.962,0.399 L47.962,0.399 C21.636,0.399 0.294,21.741 0.294,48.066" id="path-57"></path>
        <path d="M0.294,48.066 C0.294,74.393 21.636,95.735 47.962,95.735 L47.962,95.735 C74.288,95.735 95.63,74.393 95.63,48.066 L95.63,48.066 C95.63,21.741 74.288,0.399 47.962,0.399 L47.962,0.399 C21.636,0.399 0.294,21.741 0.294,48.066" id="path-59"></path>
        <path d="M0.294,48.066 C0.294,74.393 21.636,95.735 47.962,95.735 L47.962,95.735 C74.288,95.735 95.63,74.393 95.63,48.066 L95.63,48.066 C95.63,21.741 74.288,0.399 47.962,0.399 L47.962,0.399 C21.636,0.399 0.294,21.741 0.294,48.066 L0.294,48.066 Z" id="path-61"></path>
        <path d="M0.294,48.066 C0.294,74.393 21.636,95.735 47.962,95.735 L47.962,95.735 C74.288,95.735 95.63,74.393 95.63,48.066 L95.63,48.066 C95.63,21.741 74.288,0.399 47.962,0.399 L47.962,0.399 C21.636,0.399 0.294,21.741 0.294,48.066" id="path-63"></path>
        <path d="M0.294,48.066 C0.294,74.393 21.636,95.735 47.962,95.735 L47.962,95.735 C74.288,95.735 95.63,74.393 95.63,48.066 L95.63,48.066 C95.63,21.741 74.288,0.399 47.962,0.399 L47.962,0.399 C21.636,0.399 0.294,21.741 0.294,48.066 L0.294,48.066 Z" id="path-65"></path>
        <path d="M0.294,48.066 C0.294,74.393 21.636,95.735 47.962,95.735 L47.962,95.735 C74.288,95.735 95.63,74.393 95.63,48.066 L95.63,48.066 C95.63,21.741 74.288,0.399 47.962,0.399 L47.962,0.399 C21.636,0.399 0.294,21.741 0.294,48.066" id="path-67"></path>
        <path d="M0.294,48.066 C0.294,74.393 21.636,95.735 47.962,95.735 L47.962,95.735 C74.288,95.735 95.63,74.393 95.63,48.066 L95.63,48.066 C95.63,21.741 74.288,0.399 47.962,0.399 L47.962,0.399 C21.636,0.399 0.294,21.741 0.294,48.066" id="path-69"></path>
        <path d="M0.294,48.066 C0.294,74.393 21.636,95.735 47.962,95.735 L47.962,95.735 C74.288,95.735 95.63,74.393 95.63,48.066 L95.63,48.066 C95.63,21.741 74.288,0.399 47.962,0.399 L47.962,0.399 C21.636,0.399 0.294,21.741 0.294,48.066" id="path-71"></path>
        <path d="M0.294,48.066 C0.294,74.393 21.636,95.735 47.962,95.735 L47.962,95.735 C74.288,95.735 95.63,74.393 95.63,48.066 L95.63,48.066 C95.63,21.741 74.288,0.399 47.962,0.399 L47.962,0.399 C21.636,0.399 0.294,21.741 0.294,48.066" id="path-73"></path>
    </defs>
    <g id="Page-1" stroke="none" stroke-width="1" fill="none" fill-rule="evenodd">
        <g id="Group-18" transform="translate(1.290091, 0.828140)">
            <path d="M96.5598875,48.5627 C96.5598875,74.8887 75.2178875,96.2307 48.8918875,96.2307 C22.5658875,96.2307 1.2238875,74.8887 1.2238875,48.5627 C1.2238875,22.2367 22.5658875,0.8957 48.8918875,0.8957 C75.2178875,0.8957 96.5598875,22.2367 96.5598875,48.5627" id="Fill-1362" fill="#AA8CEA"></path>
            <path d="M96.5598875,48.5627 C96.5598875,74.8887 75.2178875,96.2307 48.8918875,96.2307 C22.5658875,96.2307 1.2238875,74.8887 1.2238875,48.5627 C1.2238875,22.2367 22.5658875,0.8957 48.8918875,0.8957 C75.2178875,0.8957 96.5598875,22.2367 96.5598875,48.5627 Z" id="Stroke-1364" stroke="#000000" stroke-width="3" stroke-linecap="round" stroke-linejoin="round"></path>
            <g id="Group-1419" transform="translate(0.929688, 0.496000)">
                <g id="Group-1369">
                    <mask id="mask-2" fill="white">
                        <use xlink:href="#path-1"></use>
                    </mask>
                    <g id="Clip-1368"></g>
                </g>
                <g id="Group-1372">
                    <mask id="mask-4" fill="white">
                        <use xlink:href="#path-3"></use>
                    </mask>
                    <g id="Clip-1371"></g>
                    <path d="M27.5872,117.2713 L41.3842,84.1743 C42.9192,80.4353 41.1322,76.1583 37.3932,74.6233 C33.6532,73.0883 29.3772,74.8743 27.8412,78.6143 L14.0442,111.7113" id="Fill-1370" fill="#FFFFFF" mask="url(#mask-4)"></path>
                </g>
                <g id="Group-1375">
                    <mask id="mask-6" fill="white">
                        <use xlink:href="#path-5"></use>
                    </mask>
                    <g id="Clip-1374"></g>
                    <path d="M18.9495,126.8621 C21.8305,126.8621 24.5615,125.1501 25.7235,122.3201 L41.3845,84.1741 C42.9195,80.4351 41.1325,76.1581 37.3925,74.6231 C33.6535,73.0881 29.3775,74.8741 27.8415,78.6141 L12.1805,116.7601 C10.6455,120.5001 12.4325,124.7761 16.1725,126.3111 C17.0815,126.6851 18.0235,126.8621 18.9495,126.8621 Z" id="Stroke-1373" stroke="#000000" stroke-width="2.5" mask="url(#mask-6)"></path>
                </g>
                <g id="Group-1378">
                    <mask id="mask-8" fill="white">
                        <use xlink:href="#path-7"></use>
                    </mask>
                    <g id="Clip-1377"></g>
                </g>
                <g id="Group-1381">
                    <mask id="mask-10" fill="white">
                        <use xlink:href="#path-9"></use>
                    </mask>
                    <g id="Clip-1380"></g>
                    <path d="M71.4359,117.2713 L57.6389,84.1743 C56.1039,80.4353 57.8909,76.1583 61.6299,74.6233 C65.3699,73.0883 69.6459,74.8743 71.1819,78.6143 L84.9789,111.7113" id="Fill-1379" fill="#FFFFFF" mask="url(#mask-10)"></path>
                </g>
                <g id="Group-1384">
                    <mask id="mask-12" fill="white">
                        <use xlink:href="#path-11"></use>
                    </mask>
                    <g id="Clip-1383"></g>
                    <path d="M80.0735,126.8621 C77.1925,126.8621 74.4625,125.1501 73.3005,122.3201 L57.6385,84.1741 C56.1035,80.4351 57.8905,76.1581 61.6305,74.6231 C65.3695,73.0881 69.6455,74.8741 71.1815,78.6141 L86.8425,116.7601 C88.3785,120.5001 86.5915,124.7761 82.8505,126.3111 C81.9415,126.6851 81.0005,126.8621 80.0735,126.8621 Z" id="Stroke-1382" stroke="#000000" stroke-width="2.5" mask="url(#mask-12)"></path>
                </g>
                <g id="Group-1387">
                    <mask id="mask-14" fill="white">
                        <use xlink:href="#path-13"></use>
                    </mask>
                    <g id="Clip-1386"></g>
                </g>
                <g id="Group-1390">
                    <mask id="mask-16" fill="white">
                        <use xlink:href="#path-15"></use>
                    </mask>
                    <g id="Clip-1389"></g>
                </g>
                <g id="Group-1393">
                    <mask id="mask-18" fill="white">
                        <use xlink:href="#path-17"></use>
                    </mask>
                    <g id="Clip-1392"></g>
                </g>
                <g id="Group-1396">
                    <mask id="mask-20" fill="white">
                        <use xlink:href="#path-19"></use>
                    </mask>
                    <g id="Clip-1395"></g>
                </g>
                <g id="Group-1399">
                    <mask id="mask-22" fill="white">
                        <use xlink:href="#path-21"></use>
                    </mask>
                    <g id="Clip-1398"></g>
                    <path d="M26.5999,87.4446 L73.1019,87.4446 L73.1019,119.1426 C73.1019,128.3066 65.6729,135.7356 56.5089,135.7356 L43.1929,135.7356 C34.0289,135.7356 26.5999,128.3066 26.5999,119.1426 L26.5999,87.4446 Z" id="Fill-1397" fill="#3F3F3F" mask="url(#mask-22)"></path>
                </g>
                <g id="Group-1402">
                    <mask id="mask-24" fill="white">
                        <use xlink:href="#path-23"></use>
                    </mask>
                    <g id="Clip-1401"></g>
                    <path d="M26.5999,87.4446 L73.1019,87.4446 L73.1019,119.1426 C73.1019,128.3066 65.6729,135.7356 56.5089,135.7356 L43.1929,135.7356 C34.0289,135.7356 26.5999,128.3066 26.5999,119.1426 L26.5999,87.4446 Z" id="Stroke-1400" stroke="#000000" stroke-width="2.5" mask="url(#mask-24)"></path>
                </g>
                <g id="Group-1405">
                    <mask id="mask-26" fill="white">
                        <use xlink:href="#path-25"></use>
                    </mask>
                    <g id="Clip-1404"></g>
                    <path d="M73.1019,122.3211 L26.5999,122.3211 L26.5999,83.6601 C26.5999,78.3421 30.9119,74.0301 36.2289,74.0301 L63.4729,74.0301 C68.7899,74.0301 73.1019,78.3421 73.1019,83.6601 L73.1019,122.3211 Z" id="Fill-1403" fill="#FFFFFF" mask="url(#mask-26)"></path>
                </g>
                <g id="Group-1408">
                    <mask id="mask-28" fill="white">
                        <use xlink:href="#path-27"></use>
                    </mask>
                    <g id="Clip-1407"></g>
                    <path d="M73.1019,122.3211 L26.5999,122.3211 L26.5999,83.6601 C26.5999,78.3421 30.9119,74.0301 36.2289,74.0301 L63.4729,74.0301 C68.7899,74.0301 73.1019,78.3421 73.1019,83.6601 L73.1019,122.3211 Z" id="Stroke-1406" stroke="#000000" stroke-width="2.5" mask="url(#mask-28)"></path>
                </g>
                <g id="Group-1412">
                    <mask id="mask-30" fill="white">
                        <use xlink:href="#path-29"></use>
                    </mask>
                    <g id="Clip-1410"></g>
                    <path d="M26.3528,55.7581 L23.5828,55.7581 C20.6268,55.7581 18.2078,53.3391 18.2078,50.3831 C18.2078,47.4261 20.6268,45.0081 23.5828,45.0081 L26.3528,45.0081" id="Fill-1409" fill="#77553E" mask="url(#mask-30)"></path>
                    <path d="M26.3528,55.7581 L23.5828,55.7581 C20.6268,55.7581 18.2078,53.3391 18.2078,50.3831 C18.2078,47.4261 20.6268,45.0081 23.5828,45.0081 L26.3528,45.0081" id="Stroke-1411" stroke="#000000" stroke-width="2.5" stroke-linecap="round" stroke-linejoin="round" mask="url(#mask-30)"></path>
                </g>
                <g id="Group-1415">
                    <mask id="mask-32" fill="white">
                        <use xlink:href="#path-31"></use>
                    </mask>
                    <g id="Clip-1414"></g>
                    <path d="M64.2884,76.4954 L64.2884,76.4954 C60.7964,79.5174 56.3314,81.1814 51.7124,81.1814 L46.6334,81.1814 C42.2604,81.1814 38.0174,79.6904 34.6064,76.9534 L34.0814,76.5324 C29.9084,73.1834 27.3204,68.2474 26.9394,62.9114 L25.5664,47.6124 C25.5664,34.7114 36.0244,24.2534 48.9254,24.2534 C61.8264,24.2534 72.2844,34.7114 72.2844,47.6124 L70.8814,63.3324 C70.5174,68.4214 68.1464,73.1574 64.2884,76.4954" id="Fill-1413" fill="#77553E" mask="url(#mask-32)"></path>
                </g>
                <g id="Group-1418">
                    <mask id="mask-34" fill="white">
                        <use xlink:href="#path-33"></use>
                    </mask>
                    <g id="Clip-1417"></g>
                    <path d="M64.2884,76.4954 L64.2884,76.4954 C60.7964,79.5174 56.3314,81.1814 51.7124,81.1814 L46.6334,81.1814 C42.2604,81.1814 38.0174,79.6904 34.6064,76.9534 L34.0814,76.5324 C29.9084,73.1834 27.3204,68.2474 26.9394,62.9114 L25.5664,47.6124 C25.5664,34.7114 36.0244,24.2534 48.9254,24.2534 C61.8264,24.2534 72.2844,34.7114 72.2844,47.6124 L70.8814,63.3324 C70.5174,68.4214 68.1464,73.1574 64.2884,76.4954 Z" id="Stroke-1416" stroke="#000000" stroke-width="2.5" stroke-linecap="round" stroke-linejoin="round" mask="url(#mask-34)"></path>
                </g>
            </g>
            <g id="Group-1422" transform="translate(55.929688, 53.496000)">
                <mask id="mask-36" fill="white">
                    <use xlink:href="#path-35"></use>
                </mask>
                <g id="Clip-1421"></g>
                <polygon id="Fill-1420" fill="#000000" mask="url(#mask-36)" points="-1.387 8.141 8.752 8.141 8.752 -1.998 -1.387 -1.998"></polygon>
            </g>
            <g id="Group-1425" transform="translate(37.929688, 53.496000)">
                <mask id="mask-38" fill="white">
                    <use xlink:href="#path-37"></use>
                </mask>
                <g id="Clip-1424"></g>
                <polygon id="Fill-1423" fill="#000000" mask="url(#mask-38)" points="-2.125 8.141 8.014 8.141 8.014 -1.998 -2.125 -1.998"></polygon>
            </g>
            <g id="Group-1428" transform="translate(0.929688, 0.496000)">
                <mask id="mask-40" fill="white">
                    <use xlink:href="#path-39"></use>
                </mask>
                <g id="Clip-1427"></g>
                <path d="M49.4437,72.6009 C45.5777,72.6009 42.1217,70.1509 40.8437,66.5039 C40.5237,65.5919 40.6687,64.5749 41.2277,63.7849 C41.7907,62.9919 42.7057,62.5179 43.6767,62.5179 L55.2107,62.5179 C56.1807,62.5179 57.0967,62.9919 57.6597,63.7849 C58.2187,64.5749 58.3637,65.5919 58.0437,66.5039 C56.7657,70.1509 53.3097,72.6009 49.4437,72.6009" id="Fill-1426" fill="#FFFFFF" mask="url(#mask-40)"></path>
            </g>
            <g id="Group-1432" transform="translate(40.929688, 62.496000)">
                <mask id="mask-42" fill="white">
                    <use xlink:href="#path-41"></use>
                </mask>
                <g id="Clip-1430"></g>
                <polygon id="Fill-1429" fill="#FFFFFF" mask="url(#mask-42)" points="-1.625 12.902 20.512 12.902 20.512 -1.783 -1.625 -1.783"></polygon>
                <polygon id="Stroke-1431" stroke="#000000" stroke-width="2.5" stroke-linecap="round" stroke-linejoin="round" mask="url(#mask-42)" points="-1.625 12.902 20.512 12.902 20.512 -1.783 -1.625 -1.783"></polygon>
            </g>
            <g id="Group-1439" transform="translate(0.929688, 0.496000)">
                <g id="Group-1435">
                    <mask id="mask-44" fill="white">
                        <use xlink:href="#path-43"></use>
                    </mask>
                    <g id="Clip-1434"></g>
                    <path d="M49.4437,72.6009 C45.5777,72.6009 42.1217,70.1509 40.8437,66.5039 C40.5237,65.5919 40.6687,64.5749 41.2277,63.7849 C41.7907,62.9919 42.7057,62.5179 43.6767,62.5179 L55.2107,62.5179 C56.1807,62.5179 57.0967,62.9919 57.6597,63.7849 C58.2187,64.5749 58.3637,65.5919 58.0437,66.5039 C56.7657,70.1509 53.3097,72.6009 49.4437,72.6009 Z" id="Stroke-1433" stroke="#000000" stroke-width="2.5" stroke-linecap="round" stroke-linejoin="round" mask="url(#mask-44)"></path>
                </g>
                <g id="Group-1438">
                    <mask id="mask-46" fill="white">
                        <use xlink:href="#path-45"></use>
                    </mask>
                    <g id="Clip-1437"></g>
                    <path d="M38.1263,61.2493 C38.1263,62.6323 37.0053,63.7533 35.6213,63.7533 C34.2383,63.7533 33.1173,62.6323 33.1173,61.2493 C33.1173,59.8663 34.2383,58.7453 35.6213,58.7453 C37.0053,58.7453 38.1263,59.8663 38.1263,61.2493" id="Fill-1436" fill="#6B4D39" mask="url(#mask-46)"></path>
                </g>
            </g>
            <g id="Group-1442" transform="translate(33.929688, 58.496000)">
                <mask id="mask-48" fill="white">
                    <use xlink:href="#path-47"></use>
                </mask>
                <g id="Clip-1441"></g>
                <polygon id="Fill-1440" fill="#6B4D39" mask="url(#mask-48)" points="-2.113 7.984 7.357 7.984 7.357 -1.485 -2.113 -1.485"></polygon>
            </g>
            <g id="Group-1445" transform="translate(0.929688, 0.496000)">
                <mask id="mask-50" fill="white">
                    <use xlink:href="#path-49"></use>
                </mask>
                <g id="Clip-1444"></g>
                <path d="M66.3997,61.2493 C66.3997,62.6323 65.2787,63.7533 63.8947,63.7533 C62.5117,63.7533 61.3907,62.6323 61.3907,61.2493 C61.3907,59.8663 62.5117,58.7453 63.8947,58.7453 C65.2787,58.7453 66.3997,59.8663 66.3997,61.2493" id="Fill-1443" fill="#6B4D39" mask="url(#mask-50)"></path>
            </g>
            <g id="Group-1448" transform="translate(61.929688, 58.496000)">
                <mask id="mask-52" fill="white">
                    <use xlink:href="#path-51"></use>
                </mask>
                <g id="Clip-1447"></g>
                <polygon id="Fill-1446" fill="#6B4D39" mask="url(#mask-52)" points="-1.84 7.984 7.63 7.984 7.63 -1.485 -1.84 -1.485"></polygon>
            </g>
            <g id="Group-1487" transform="translate(0.929688, 0.496000)">
                <g id="Group-1452">
                    <mask id="mask-54" fill="white">
                        <use xlink:href="#path-53"></use>
                    </mask>
                    <g id="Clip-1450"></g>
                    <path d="M73.1331,45.0081 C76.0891,45.0081 78.5081,47.4261 78.5081,50.3831 C78.5081,53.3391 76.0891,55.7581 73.1331,55.7581" id="Fill-1449" fill="#77553E" mask="url(#mask-54)"></path>
                    <path d="M73.1331,45.0081 C76.0891,45.0081 78.5081,47.4261 78.5081,50.3831 C78.5081,53.3391 76.0891,55.7581 73.1331,55.7581" id="Stroke-1451" stroke="#000000" stroke-width="2.5" stroke-linecap="round" stroke-linejoin="round" mask="url(#mask-54)"></path>
                </g>
                <g id="Group-1455">
                    <mask id="mask-56" fill="white">
                        <use xlink:href="#path-55"></use>
                    </mask>
                    <g id="Clip-1454"></g>
                    <path d="M63.2718,51.5633 C62.4978,50.2883 61.1998,49.3603 59.7118,49.0183 C58.1638,48.6513 56.4828,48.9373 55.1048,49.8103 L55.1898,49.9443 L55.0788,49.8263 C55.0298,49.8573 54.9838,49.8933 54.9408,49.9343 C54.7568,50.1073 54.6508,50.3413 54.6428,50.5933 C54.6348,50.8463 54.7258,51.0863 54.8988,51.2703 C55.0718,51.4543 55.3058,51.5603 55.5578,51.5673 C55.8238,51.5633 56.0508,51.4843 56.2348,51.3123 C57.1108,50.4883 58.3148,50.0433 59.5578,50.1053 C60.8608,50.1553 62.1218,50.7563 63.0178,51.7513 C63.0488,51.7863 63.0918,51.8043 63.1358,51.8043 C63.1678,51.8043 63.2018,51.7943 63.2308,51.7733 C63.2958,51.7243 63.3138,51.6333 63.2718,51.5633" id="Fill-1453" fill="#080705" mask="url(#mask-56)"></path>
                </g>
                <g id="Group-1458">
                    <mask id="mask-58" fill="white">
                        <use xlink:href="#path-57"></use>
                    </mask>
                    <g id="Clip-1457"></g>
                    <path d="M43.2708,49.9324 L43.2438,49.9154 C41.8858,49.0554 40.1628,48.7594 38.6388,49.1244 C37.1508,49.4664 35.8518,50.3944 35.0778,51.6694 C35.0358,51.7394 35.0528,51.8304 35.1188,51.8784 C35.1468,51.9004 35.1798,51.9104 35.2128,51.9104 C35.2558,51.9104 35.2998,51.8924 35.3318,51.8574 C36.2278,50.8614 37.4888,50.2614 38.7918,50.2104 C40.0178,50.1544 41.2388,50.5934 42.1148,51.4174 C42.2988,51.5894 42.5498,51.6704 42.7908,51.6734 C43.0428,51.6654 43.2778,51.5594 43.4508,51.3754 C43.6238,51.1914 43.7128,50.9524 43.7068,50.6994 C43.6988,50.4474 43.5928,50.2124 43.4078,50.0394 C43.3658,49.9994 43.3198,49.9634 43.2708,49.9324" id="Fill-1456" fill="#080705" mask="url(#mask-58)"></path>
                </g>
                <g id="Group-1461">
                    <mask id="mask-60" fill="white">
                        <use xlink:href="#path-59"></use>
                    </mask>
                    <g id="Clip-1460"></g>
                    <path d="M42.5745,23.9256 C42.0815,23.2196 41.3765,22.5936 40.5225,22.4836 C39.6685,22.3726 38.7005,22.9626 38.6505,23.8216 C38.2095,23.2386 37.3515,22.8636 36.6375,23.0176 C35.9235,23.1706 35.3215,23.7616 35.1585,24.4736 C34.2435,24.1216 33.0645,24.1086 32.1855,24.5406 C31.9665,24.6486 31.7515,24.7846 31.6155,24.9886 C31.4805,25.1926 31.4425,25.4756 31.5775,25.6796 C30.9485,25.2796 30.0715,25.4676 29.3885,25.7676 C28.7065,26.0666 28.1905,26.7196 28.0605,27.4536 C27.2395,27.3236 26.2535,27.6536 25.6485,28.2226 C25.0445,28.7916 24.7235,29.6476 24.8045,30.4736 C23.2625,31.0906 22.2325,33.0626 22.3795,34.7166 C21.6725,34.8056 21.0995,35.5166 20.7535,36.1376 C20.4065,36.7596 20.3755,37.5466 20.6715,38.1936 C19.7425,38.8186 19.2885,40.4406 19.8845,41.3876 C19.2585,41.7966 18.8615,42.4746 18.5025,43.1316 C18.1435,43.7876 18.1935,44.7326 18.8135,45.1516 C18.1475,45.3266 17.6865,45.9656 17.4065,46.5936 C17.2295,46.9926 17.1745,47.4726 17.3815,47.8576 C17.5875,48.2416 18.1075,48.4666 18.4885,48.2516 C18.0565,48.5736 17.3745,48.9786 17.0515,49.4086 C16.7275,49.8396 16.5295,50.3946 16.6435,50.9206 C16.7585,51.4466 17.2475,51.9046 17.7845,51.8656 C17.5105,52.1166 17.2635,52.3176 17.0795,52.6396 C16.8945,52.9626 16.7985,53.3486 16.8805,53.7116 C16.9625,54.0736 17.2465,54.4006 17.6125,54.4676 C17.1945,54.7076 16.8445,55.0756 16.6365,55.5106 C16.4285,55.9456 16.4025,56.4806 16.6345,56.9036 C16.8645,57.3266 17.3725,57.6026 17.8445,57.5006 C17.2645,57.8316 16.8175,58.4016 16.6855,59.0556 C16.6125,59.4146 16.6295,59.8046 16.8045,60.1256 C16.9805,60.4476 17.3385,60.6836 17.7035,60.6486 C17.3895,60.9526 17.1305,61.2616 16.9445,61.6566 C16.7585,62.0516 16.7125,62.5366 16.9245,62.9186 C17.0775,63.1946 17.3485,63.3896 17.6405,63.5096 C17.9325,63.6306 18.2465,63.6846 18.5575,63.7386 C17.8845,64.0146 17.4935,64.8706 17.5955,65.5916 C17.6975,66.3116 18.3285,66.9236 19.0535,67.0036 C18.4765,67.3466 18.0995,68.0006 18.0935,68.6706 C18.0855,69.3416 18.4475,70.0036 19.0145,70.3606 C18.4675,70.9116 18.2355,71.7576 18.4255,72.5106 C18.6145,73.2646 19.2185,73.9006 19.9625,74.1296 C19.7545,74.8456 19.9455,75.6386 20.4535,76.1856 C20.9625,76.7326 21.7645,76.9866 22.4955,76.8326 C22.7835,77.6246 23.5135,78.2386 24.3445,78.3876 C25.1755,78.5366 26.0735,78.2146 26.6185,77.5726 C27.3815,77.7726 28.2425,77.5416 28.8015,76.9866 C29.3595,76.4306 29.5955,75.5716 29.3975,74.8086 C29.6785,74.9806 30.0165,74.7576 30.2635,74.5416 C31.1505,73.7636 31.5755,72.4946 31.3335,71.3416 C31.7175,71.2546 32.1555,70.8006 32.3395,70.4516 C32.7805,69.6136 32.7455,68.5446 32.2515,67.7366 C32.8655,67.4466 33.3485,66.8796 33.4865,66.2146 C33.6235,65.5506 33.4305,64.8256 32.9815,64.3166 C33.4465,63.8686 33.7755,63.2916 33.8635,62.6526 C33.9505,62.0136 33.8175,61.3466 33.4915,60.7906 C34.2525,59.8536 34.3445,58.4876 33.6405,57.5056 C34.2445,57.1766 34.6865,56.4256 34.6875,55.7386 C34.6875,55.0516 34.2885,54.3786 33.6845,54.0486 C34.1945,53.6756 34.4455,52.9316 34.4635,52.3006 C34.4805,51.6686 34.1915,51.0356 33.7035,50.6346 C34.5005,49.6166 34.5725,48.2676 33.9355,47.1426 C34.5035,46.7496 34.9995,46.1116 35.2195,45.4576 C35.4385,44.8036 35.4415,44.0786 35.2265,43.4226 C36.1435,42.4966 36.5805,41.0786 36.3415,39.7976 C37.2025,38.8936 37.6255,37.5306 37.3045,36.3236 C38.4115,35.6556 39.0505,34.1436 38.7065,32.8986 C39.0115,32.9346 39.2895,32.6336 39.4945,32.4066 C40.0895,31.7456 40.4815,30.9056 40.6055,30.0256 C41.2665,30.2576 42.0475,29.9866 42.6025,29.5596 C43.1575,29.1336 43.4765,28.4166 43.4225,27.7186 C44.1605,27.2206 44.4635,26.1426 44.0765,25.3406 C43.7745,24.7176 42.9705,24.4936 42.5745,23.9256" id="Fill-1459" fill="#191716" mask="url(#mask-60)"></path>
                </g>
                <g id="Group-1464">
                    <mask id="mask-62" fill="white">
                        <use xlink:href="#path-61"></use>
                    </mask>
                    <g id="Clip-1463"></g>
                    <path d="M42.5745,23.9256 C42.0815,23.2196 41.3765,22.5936 40.5225,22.4836 C39.6685,22.3726 38.7005,22.9626 38.6505,23.8216 C38.2095,23.2386 37.3515,22.8636 36.6375,23.0176 C35.9235,23.1706 35.3215,23.7616 35.1585,24.4736 C34.2435,24.1216 33.0645,24.1086 32.1855,24.5406 C31.9665,24.6486 31.7515,24.7846 31.6155,24.9886 C31.4805,25.1926 31.4425,25.4756 31.5775,25.6796 C30.9485,25.2796 30.0715,25.4676 29.3885,25.7676 C28.7065,26.0666 28.1905,26.7196 28.0605,27.4536 C27.2395,27.3236 26.2535,27.6536 25.6485,28.2226 C25.0445,28.7916 24.7235,29.6476 24.8045,30.4736 C23.2625,31.0906 22.2325,33.0626 22.3795,34.7166 C21.6725,34.8056 21.0995,35.5166 20.7535,36.1376 C20.4065,36.7596 20.3755,37.5466 20.6715,38.1936 C19.7425,38.8186 19.2885,40.4406 19.8845,41.3876 C19.2585,41.7966 18.8615,42.4746 18.5025,43.1316 C18.1435,43.7876 18.1935,44.7326 18.8135,45.1516 C18.1475,45.3266 17.6865,45.9656 17.4065,46.5936 C17.2295,46.9926 17.1745,47.4726 17.3815,47.8576 C17.5875,48.2416 18.1075,48.4666 18.4885,48.2516 C18.0565,48.5736 17.3745,48.9786 17.0515,49.4086 C16.7275,49.8396 16.5295,50.3946 16.6435,50.9206 C16.7585,51.4466 17.2475,51.9046 17.7845,51.8656 C17.5105,52.1166 17.2635,52.3176 17.0795,52.6396 C16.8945,52.9626 16.7985,53.3486 16.8805,53.7116 C16.9625,54.0736 17.2465,54.4006 17.6125,54.4676 C17.1945,54.7076 16.8445,55.0756 16.6365,55.5106 C16.4285,55.9456 16.4025,56.4806 16.6345,56.9036 C16.8645,57.3266 17.3725,57.6026 17.8445,57.5006 C17.2645,57.8316 16.8175,58.4016 16.6855,59.0556 C16.6125,59.4146 16.6295,59.8046 16.8045,60.1256 C16.9805,60.4476 17.3385,60.6836 17.7035,60.6486 C17.3895,60.9526 17.1305,61.2616 16.9445,61.6566 C16.7585,62.0516 16.7125,62.5366 16.9245,62.9186 C17.0775,63.1946 17.3485,63.3896 17.6405,63.5096 C17.9325,63.6306 18.2465,63.6846 18.5575,63.7386 C17.8845,64.0146 17.4935,64.8706 17.5955,65.5916 C17.6975,66.3116 18.3285,66.9236 19.0535,67.0036 C18.4765,67.3466 18.0995,68.0006 18.0935,68.6706 C18.0855,69.3416 18.4475,70.0036 19.0145,70.3606 C18.4675,70.9116 18.2355,71.7576 18.4255,72.5106 C18.6145,73.2646 19.2185,73.9006 19.9625,74.1296 C19.7545,74.8456 19.9455,75.6386 20.4535,76.1856 C20.9625,76.7326 21.7645,76.9866 22.4955,76.8326 C22.7835,77.6246 23.5135,78.2386 24.3445,78.3876 C25.1755,78.5366 26.0735,78.2146 26.6185,77.5726 C27.3815,77.7726 28.2425,77.5416 28.8015,76.9866 C29.3595,76.4306 29.5955,75.5716 29.3975,74.8086 C29.6785,74.9806 30.0165,74.7576 30.2635,74.5416 C31.1505,73.7636 31.5755,72.4946 31.3335,71.3416 C31.7175,71.2546 32.1555,70.8006 32.3395,70.4516 C32.7805,69.6136 32.7455,68.5446 32.2515,67.7366 C32.8655,67.4466 33.3485,66.8796 33.4865,66.2146 C33.6235,65.5506 33.4305,64.8256 32.9815,64.3166 C33.4465,63.8686 33.7755,63.2916 33.8635,62.6526 C33.9505,62.0136 33.8175,61.3466 33.4915,60.7906 C34.2525,59.8536 34.3445,58.4876 33.6405,57.5056 C34.2445,57.1766 34.6865,56.4256 34.6875,55.7386 C34.6875,55.0516 34.2885,54.3786 33.6845,54.0486 C34.1945,53.6756 34.4455,52.9316 34.4635,52.3006 C34.4805,51.6686 34.1915,51.0356 33.7035,50.6346 C34.5005,49.6166 34.5725,48.2676 33.9355,47.1426 C34.5035,46.7496 34.9995,46.1116 35.2195,45.4576 C35.4385,44.8036 35.4415,44.0786 35.2265,43.4226 C36.1435,42.4966 36.5805,41.0786 36.3415,39.7976 C37.2025,38.8936 37.6255,37.5306 37.3045,36.3236 C38.4115,35.6556 39.0505,34.1436 38.7065,32.8986 C39.0115,32.9346 39.2895,32.6336 39.4945,32.4066 C40.0895,31.7456 40.4815,30.9056 40.6055,30.0256 C41.2665,30.2576 42.0475,29.9866 42.6025,29.5596 C43.1575,29.1336 43.4765,28.4166 43.4225,27.7186 C44.1605,27.2206 44.4635,26.1426 44.0765,25.3406 C43.7745,24.7176 42.9705,24.4936 42.5745,23.9256 Z" id="Stroke-1462" stroke="#000000" stroke-width="2.5" stroke-linecap="round" stroke-linejoin="round" mask="url(#mask-62)"></path>
                </g>
                <g id="Group-1467">
                    <mask id="mask-64" fill="white">
                        <use xlink:href="#path-63"></use>
                    </mask>
                    <g id="Clip-1466"></g>
                    <path d="M37.4593,28.6678 C38.4243,29.1518 38.6193,29.2238 39.5733,28.7198 C39.9713,28.5098 40.3613,28.2108 40.8113,28.2278 C41.2263,28.2428 41.5773,28.5248 41.9683,28.6688 C42.9333,29.0248 44.1373,28.3468 44.3343,27.3368 C44.7503,28.4698 46.7093,28.3358 47.1183,27.2008 C47.6813,28.4658 48.4383,29.0188 49.6243,28.3028 C49.2073,30.4528 50.4333,31.5848 51.8343,31.6128 C51.7153,33.3558 53.2353,35.0398 54.9813,35.0988 C54.6843,36.8018 56.2773,38.5638 58.0013,38.4378 C57.9053,39.9948 59.1633,41.5148 60.7113,41.7118 C60.9433,45.3288 65.5993,47.8328 66.6563,51.2988 C67.0953,52.7358 67.6053,54.1618 67.8193,55.6498 C66.7563,58.5438 67.4573,62.0098 69.5613,64.2648 C68.5053,66.0018 68.5073,68.3288 69.5643,70.0638 C68.4693,71.3778 69.0483,73.6968 70.6333,74.3408 C70.1343,74.7888 70.0443,75.6238 70.4383,76.1658 C70.8313,76.7088 71.6513,76.8838 72.2323,76.5498 C72.2093,77.1308 72.7003,77.6858 73.2793,77.7318 C73.8593,77.7778 74.4333,77.3078 74.5013,76.7308 C75.8213,76.6818 76.7233,74.9298 75.9923,73.8278 C77.2173,73.4588 77.9163,71.8988 77.3753,70.7398 C78.5003,70.1428 79.1923,68.8198 79.0443,67.5558 C80.7583,62.4018 81.3003,56.8618 80.6163,51.4738 C81.1833,48.0088 80.0643,44.3078 77.6753,41.7338 C78.6163,40.2578 77.7643,37.9828 76.0843,37.4888 C76.4513,36.5108 76.2443,35.3398 75.5633,34.5468 C74.8833,33.7538 73.7563,33.3728 72.7333,33.5888 C73.0313,31.6758 71.3433,29.7058 69.4073,29.7058 C69.1173,27.8508 67.0103,26.5078 65.2063,27.0278 C65.2113,26.0828 64.4303,25.0348 63.7083,24.4228 C62.6393,23.5188 60.8933,24.0758 60.8933,24.0758 C59.9493,21.5598 57.9863,22.2828 57.9863,22.2828 C57.6003,21.0448 55.6823,20.2848 54.8183,20.9748 C54.0153,19.5538 51.4223,19.1168 50.4183,20.4038 C49.4553,19.0618 47.3773,20.6908 46.0093,21.6178 C44.7303,20.4168 42.3013,21.9288 41.6153,23.5438 C40.5843,22.6068 38.7353,22.8268 37.9533,23.9808 C36.9533,23.6518 36.0213,24.9058 36.2193,25.9388 C36.4183,26.9728 36.5193,28.1958 37.4593,28.6678" id="Fill-1465" fill="#191716" mask="url(#mask-64)"></path>
                </g>
                <g id="Group-1470">
                    <mask id="mask-66" fill="white">
                        <use xlink:href="#path-65"></use>
                    </mask>
                    <g id="Clip-1469"></g>
                    <path d="M37.4593,28.6678 C38.4243,29.1518 38.6193,29.2238 39.5733,28.7198 C39.9713,28.5098 40.3613,28.2108 40.8113,28.2278 C41.2263,28.2428 41.5773,28.5248 41.9683,28.6688 C42.9333,29.0248 44.1373,28.3468 44.3343,27.3368 C44.7503,28.4698 46.7093,28.3358 47.1183,27.2008 C47.6813,28.4658 48.4383,29.0188 49.6243,28.3028 C49.2073,30.4528 50.4333,31.5848 51.8343,31.6128 C51.7153,33.3558 53.2353,35.0398 54.9813,35.0988 C54.6843,36.8018 56.2773,38.5638 58.0013,38.4378 C57.9053,39.9948 59.1633,41.5148 60.7113,41.7118 C60.9433,45.3288 65.5993,47.8328 66.6563,51.2988 C67.0953,52.7358 67.6053,54.1618 67.8193,55.6498 C66.7563,58.5438 67.4573,62.0098 69.5613,64.2648 C68.5053,66.0018 68.5073,68.3288 69.5643,70.0638 C68.4693,71.3778 69.0483,73.6968 70.6333,74.3408 C70.1343,74.7888 70.0443,75.6238 70.4383,76.1658 C70.8313,76.7088 71.6513,76.8838 72.2323,76.5498 C72.2093,77.1308 72.7003,77.6858 73.2793,77.7318 C73.8593,77.7778 74.4333,77.3078 74.5013,76.7308 C75.8213,76.6818 76.7233,74.9298 75.9923,73.8278 C77.2173,73.4588 77.9163,71.8988 77.3753,70.7398 C78.5003,70.1428 79.1923,68.8198 79.0443,67.5558 C80.7583,62.4018 81.3003,56.8618 80.6163,51.4738 C81.1833,48.0088 80.0643,44.3078 77.6753,41.7338 C78.6163,40.2578 77.7643,37.9828 76.0843,37.4888 C76.4513,36.5108 76.2443,35.3398 75.5633,34.5468 C74.8833,33.7538 73.7563,33.3728 72.7333,33.5888 C73.0313,31.6758 71.3433,29.7058 69.4073,29.7058 C69.1173,27.8508 67.0103,26.5078 65.2063,27.0278 C65.2113,26.0828 64.4303,25.0348 63.7083,24.4228 C62.6393,23.5188 60.8933,24.0758 60.8933,24.0758 C59.9493,21.5598 57.9863,22.2828 57.9863,22.2828 C57.6003,21.0448 55.6823,20.2848 54.8183,20.9748 C54.0153,19.5538 51.4223,19.1168 50.4183,20.4038 C49.4553,19.0618 47.3773,20.6908 46.0093,21.6178 C44.7303,20.4168 42.3013,21.9288 41.6153,23.5438 C40.5843,22.6068 38.7353,22.8268 37.9533,23.9808 C36.9533,23.6518 36.0213,24.9058 36.2193,25.9388 C36.4183,26.9728 36.5193,28.1958 37.4593,28.6678 Z" id="Stroke-1468" stroke="#000000" stroke-width="2.5" stroke-linecap="round" stroke-linejoin="round" mask="url(#mask-66)"></path>
                </g>
                <g id="Group-1474">
                    <mask id="mask-68" fill="white">
                        <use xlink:href="#path-67"></use>
                    </mask>
                    <g id="Clip-1472"></g>
                    <path d="M39.0423,54.6765 L37.5453,53.0055" id="Fill-1471" fill="#FBE2C4" mask="url(#mask-68)"></path>
                    <path d="M39.0423,54.6765 L37.5453,53.0055" id="Stroke-1473" stroke="#000000" stroke-linecap="round" stroke-linejoin="round" mask="url(#mask-68)"></path>
                </g>
                <g id="Group-1478">
                    <mask id="mask-70" fill="white">
                        <use xlink:href="#path-69"></use>
                    </mask>
                    <g id="Clip-1476"></g>
                    <path d="M38.5423,55.7317 L36.4413,54.9427" id="Fill-1475" fill="#FBE2C4" mask="url(#mask-70)"></path>
                    <path d="M38.5423,55.7317 L36.4413,54.9427" id="Stroke-1477" stroke="#000000" stroke-linecap="round" stroke-linejoin="round" mask="url(#mask-70)"></path>
                </g>
                <g id="Group-1482">
                    <mask id="mask-72" fill="white">
                        <use xlink:href="#path-71"></use>
                    </mask>
                    <g id="Clip-1480"></g>
                    <path d="M59.845,54.6765 L61.342,53.0055" id="Fill-1479" fill="#FBE2C4" mask="url(#mask-72)"></path>
                    <path d="M59.845,54.6765 L61.342,53.0055" id="Stroke-1481" stroke="#000000" stroke-linecap="round" stroke-linejoin="round" mask="url(#mask-72)"></path>
                </g>
                <g id="Group-1486">
                    <mask id="mask-74" fill="white">
                        <use xlink:href="#path-73"></use>
                    </mask>
                    <g id="Clip-1484"></g>
                    <path d="M60.345,55.7317 L62.446,54.9427" id="Fill-1483" fill="#FBE2C4" mask="url(#mask-74)"></path>
                    <path d="M60.345,55.7317 L62.446,54.9427" id="Stroke-1485" stroke="#000000" stroke-linecap="round" stroke-linejoin="round" mask="url(#mask-74)"></path>
                </g>
            </g>
            <path d="M96.2854875,48.632 C96.2854875,74.958 74.9444875,96.3 48.6184875,96.3 C22.2924875,96.3 0.9504875,74.958 0.9504875,48.632 C0.9504875,22.306 22.2924875,0.965 48.6184875,0.965 C74.9444875,0.965 96.2854875,22.306 96.2854875,48.632 Z" id="Stroke-1488" stroke="#000000" stroke-width="3" stroke-linecap="round" stroke-linejoin="round"></path>
        </g>
    </g>
</svg>